<?xml version="1.0" encoding="utf-8"?>
<!-- Generator: Adobe Illustrator 25.3.0, SVG Export Plug-In . SVG Version: 6.00 Build 0)  -->
<svg version="1.1" id="Capa_1" xmlns="http://www.w3.org/2000/svg" xmlns:xlink="http://www.w3.org/1999/xlink" x="0px" y="0px"
	 viewBox="0 0 231 70" style="enable-background:new 0 0 231 70;" xml:space="preserve">
<style type="text/css">
	.st0{fill:#0424A4;}
	.st1{fill:#FFFFFF;stroke:#000000;stroke-miterlimit:10;}
</style>
<g transform="translate(0.000000,70.000000) scale(0.100000,-0.100000)">
	<path class="st0" d="M195,655c-76-41-98-84-93-177c3-65,6-71,45-110s47-42,107-46c54-4,71,0,106,19c59,34,80,73,80,151
		c0,71-20,112-72,151C331,671,236,677,195,655z M319,616c52-41,55-187,5-241c-62-67-144,3-144,123C180,604,255,668,319,616z"/>
	<path class="st0" d="M2029,653c-21-25-34-55-74-166c-40-113-52-137-65-137c-9,0-119,148-120,161c0,3,23,36,50,73c28,37,50,69,50,71
		c0,3-22,5-50,5c-36,0-50-4-50-14c0-8,5-16,12-18c15-5-28-78-45-78c-18,1-46,65-40,89c5,20,1,21-61,21c-52,0-66-3-66-15
		c0-8,4-15,9-15s26-27,47-60c22-33,42-60,47-60c4,0,7-4,7-10c0-11-62-102-93-137c-26-29-18-36,38-36c53,1,67,9,43,27
		c-17,12-17,16,5,54c12,23,27,42,32,42c6-1,23-19,38-41c22-33,26-44,16-55c-6-8-9-17-6-21c10-9,217-10,223-1c3,5,1,15-5,22
		s-8,27-5,45l7,31h67h68l5-32c2-18,0-39-6-46c-15-19-2-25,58-24c65,0,74,5,53,29c-8,10-30,61-48,114C2112,644,2068,700,2029,653z
		 M2071,530l16-50h-43h-43l13,33c7,17,16,40,19,50C2043,592,2054,582,2071,530z M1727,518c6-7,13-24,16-38c6-24,5-24-18,5
		c-14,17-25,33-25,38C1700,534,1717,531,1727,518z"/>
	<path class="st0" d="M480,645c0-8,6-15,14-15c11,0,12-23,8-120l-5-119l36-36c33-33,38-35,103-35c129,0,162,45,150,205
		c-5,76-3,95,9,105c24,20,8,30-46,30c-53,0-60-7-29-35c18-16,20-31,20-122c0-97-2-106-25-128c-45-46-115-24-131,40c-3,13-4,62-3,109
		c3,62,9,89,22,103c24,27,13,33-60,33C494,660,480,657,480,645z"/>
	<path class="st0" d="M840,651c0-6,5-13,10-16c14-9,13-272-1-280c-32-20,18-32,112-26c6,1,4,10-5,23c-23,32-23,260-1,282
		c8,8,15,17,15,20s-29,6-65,6S840,656,840,651z"/>
	<path class="st0" d="M996,648c-21-67-9-81,35-43c18,14,37,24,43,22c7-2,12-48,14-133c2-112,0-130-14-141c-26-19-12-25,52-26
		c54,0,79,13,55,28c-7,4-11,56-11,136c0,119,1,129,18,129c11,0,27-9,37-20c35-39,54-20,39,38c-6,21-10,22-135,22
		C1034,660,998,657,996,648z"/>
	<path class="st0" d="M1298,515c3-102,0-150-8-160c-6-8-10-18-7-22s63-6,134-3c125,5,128,5,131,29c6,37-14,48-41,23
		c-18-17-36-22-75-22h-52v65v65h43c24,0,48-5,55-12c17-17,35,3,30,33c-3,23-6,24-65,21l-63-4v51v51h44c28,0,52-7,69-20
		c34-27,37-26,37,15v35h-117h-118L1298,515z"/>
	<path class="st0" d="M66,363c-9-10,4-23,23-23c11,0,56-25,102-55s89-55,96-55c8,0,32,9,53,20c47,24,55,46,13,34c-49-14-82-8-156,29
		C107,358,74,370,66,363z"/>
	<path class="st0" d="M2187,160c-90-49-149-68-265-81c-124-15-271-2-670,58c-299,45-314,46-557,47c-263,1-334-7-498-55
		c-91-27-80-34,14-10c145,37,230,46,454,46c232,0,297-7,550-55c245-47,320-55,520-54c162,0,203,3,277,22c90,22,184,64,228,101
		C2275,207,2265,204,2187,160z"/>
</g>
<path class="st1" d="M171.5,21"/>
<path class="st1" d="M172.7,18.2"/>
<g>
	<path class="st0" d="M185.4,21"/>
	<path class="st0" d="M185.4,17.4"/>
</g>
<g>
	<path class="st0" d="M171.3,16.4c-1.4,0.1-1.8,0.7-1.8,0.7l3.2,6.7l2.3,0.7l1-3.8l-2.2-4l-1.6-0.4"/>
</g>
</svg>
